<svg xmlns="http://www.w3.org/2000/svg" version="1.0" width="1024.000000pt" height="1024.000000pt" viewBox="0 0 1024.000000 1024.000000" preserveAspectRatio="xMidYMid meet">

<g transform="translate(0.000000,1024.000000) scale(0.100000,-0.100000)" fill="#bc8787" stroke="none">
<path d="M2850 8419 c-596 -76 -1035 -488 -1146 -1075 -18 -95 -19 -189 -19 -2234 0 -2386 -5 -2202 71 -2429 152 -455 503 -757 999 -858 86 -17 204 -18 2375 -18 2538 0 2335 -5 2551 65 189 62 340 153 488 295 188 179 298 380 363 663 l22 97 4 2140 c2 1500 0 2165 -8 2223 -59 448 -332 829 -725 1013 -101 47 -181 74 -303 102 l-97 22 -2255 1 c-1240 1 -2284 -2 -2320 -7z m3231 -437 c32 -21 458 -391 517 -448 37 -36 42 -47 42 -85 0 -38 -5 -48 -50 -91 -72 -69 -108 -66 -200 15 -25 22 -135 118 -245 215 -258 225 -265 232 -265 278 0 31 8 45 49 85 41 42 54 49 87 49 21 0 51 -8 65 -18z m-415 -426 l79 -74 66 65 67 65 173 -152 c96 -84 185 -163 199 -176 l24 -24 -59 -61 -60 -60 68 -64 c40 -39 67 -72 67 -84 0 -18 -67 -97 -235 -279 -9 -10 -20 -8 -56 12 -93 53 -230 68 -348 41 -243 -58 -429 -308 -407 -546 7 -80 36 -166 74 -223 l29 -43 -159 -179 c-88 -98 -170 -189 -182 -202 l-23 -23 -367 327 -367 326 19 22 c29 32 431 480 871 969 336 374 397 437 420 437 21 0 48 -19 107 -74z m242 -1012 c69 -34 155 -129 177 -194 48 -146 -31 -327 -173 -397 -48 -24 -70 -28 -137 -28 -67 0 -88 5 -130 27 -68 36 -139 111 -171 182 -66 146 8 325 169 406 51 26 72 30 137 30 62 0 86 -5 128 -26z m571 -332 c222 -157 419 -396 551 -667 109 -225 158 -420 167 -671 9 -254 -18 -448 -92 -671 -84 -251 -223 -482 -394 -654 -99 -99 -261 -229 -285 -229 -6 0 -61 91 -122 202 l-112 201 81 66 c140 115 254 270 332 452 142 331 153 722 30 1035 -81 202 -236 396 -454 566 l-34 26 30 39 c75 94 123 228 123 341 l0 74 58 -32 c31 -18 86 -53 121 -78z m-2429 -59 c51 -35 919 -813 929 -832 6 -11 11 -35 11 -54 0 -28 -9 -43 -44 -78 -92 -89 -100 -86 -302 93 -87 78 -288 255 -446 395 -157 139 -298 267 -312 284 -18 22 -26 42 -26 70 0 35 7 47 50 89 55 56 94 65 140 33z m-20 -540 l109 -97 -46 -51 c-176 -192 -203 -211 -260 -181 -32 16 -95 80 -112 113 -27 53 -16 77 92 197 56 64 103 115 105 116 2 0 52 -44 112 -97z m447 -394 l114 -102 -27 -28 c-101 -105 -297 -24 -281 117 4 41 49 114 69 114 6 0 62 -46 125 -101z m-651 -320 c232 -32 472 -148 652 -314 144 -133 271 -336 322 -512 l24 -83 607 0 608 0 15 -22 c9 -12 16 -41 16 -63 0 -22 -7 -51 -16 -63 l-15 -22 -597 0 -598 0 -1 -107 c-3 -307 -143 -617 -378 -842 -162 -154 -338 -256 -532 -308 -91 -25 -113 -27 -298 -27 -185 0 -207 2 -298 27 -114 30 -252 93 -356 162 -89 59 -234 195 -297 279 -91 120 -168 300 -205 479 -28 133 -30 343 -5 470 93 475 481 854 962 941 96 17 285 20 390 5z m2124 -1291 c58 -27 133 -94 179 -162 16 -23 117 -211 226 -418 l198 -378 261 0 c241 0 264 -2 306 -21 58 -26 77 -44 106 -101 34 -68 34 -159 -1 -193 l-24 -25 -1325 0 -1325 0 -20 26 c-40 51 -24 172 31 239 60 72 74 75 378 75 148 0 270 2 270 4 0 2 47 169 105 372 110 383 140 460 202 514 40 36 118 77 170 90 21 5 76 8 123 7 66 -3 97 -9 140 -29z" fill="#bc8787"/>
<path d="M5721 6357 c-70 -36 -89 -132 -37 -186 85 -88 211 -40 211 81 0 45 -4 53 -37 84 -41 37 -91 45 -137 21z" fill="#bc8787"/>
<path d="M3525 4740 c-338 -42 -650 -262 -803 -565 -128 -255 -136 -586 -20 -863 67 -162 216 -346 356 -441 179 -121 353 -174 577 -174 187 0 309 29 465 109 271 139 468 388 552 697 32 116 32 373 0 492 -30 112 -109 266 -185 360 -221 274 -597 428 -942 385z m65 -174 c6 -8 10 -25 8 -38 -4 -32 -62 -39 -78 -9 -23 44 38 85 70 47z m440 -75 c63 -24 156 -98 258 -205 123 -130 143 -190 102 -300 -34 -91 -167 -189 -333 -247 -99 -35 -139 -36 -197 -6 -58 28 -81 64 -119 184 -100 312 -72 525 74 577 58 21 155 20 215 -3z m-642 -60 c134 -69 223 -314 163 -446 -41 -90 -181 -173 -391 -231 -96 -27 -185 -31 -234 -10 -68 28 -112 120 -103 217 17 190 310 489 479 489 28 0 64 -8 86 -19z m238 -587 c16 -24 16 -26 -4 -46 -18 -19 -25 -20 -47 -10 -43 20 -27 80 22 82 7 0 20 -12 29 -26z m864 -99 c17 -20 5 -62 -21 -70 -24 -8 -59 19 -59 45 0 37 55 55 80 25z m-895 -46 c56 -16 120 -84 140 -150 17 -60 20 -180 5 -260 -23 -126 -150 -313 -243 -358 -104 -50 -215 -4 -373 154 -56 57 -110 121 -122 146 -72 148 41 352 236 427 124 47 272 64 357 41z m668 -92 c66 -27 107 -76 107 -128 0 -103 -74 -242 -195 -365 -90 -93 -126 -109 -195 -92 -49 13 -82 50 -123 137 -28 59 -29 68 -24 146 8 107 35 171 97 229 107 100 214 123 333 73z m-1385 -25 c6 -43 -45 -71 -76 -40 -30 30 -4 71 43 66 23 -2 31 -9 33 -26z m932 -511 c0 -28 -28 -47 -48 -34 -24 15 -27 44 -7 59 22 17 55 1 55 -25z m-12 -123 c16 -16 15 -53 -3 -68 -33 -27 -81 15 -64 58 9 24 47 30 67 10z" fill="#bc8787"/>
<path d="M3882 4428 c-20 -20 -15 -66 8 -78 45 -24 85 22 60 69 -12 23 -49 28 -68 9z" fill="#bc8787"/>
<path d="M4015 4270 c-8 -26 6 -43 31 -38 13 2 19 12 19 28 0 34 -40 41 -50 10z" fill="#bc8787"/>
<path d="M3843 4214 c-8 -22 10 -49 32 -49 10 0 22 7 28 16 15 24 1 49 -28 49 -15 0 -28 -7 -32 -16z" fill="#bc8787"/>
<path d="M4132 4198 c-16 -16 -15 -33 4 -48 22 -19 54 12 38 37 -14 22 -27 26 -42 11z" fill="#bc8787"/>
<path d="M4221 4106 c-21 -25 -4 -58 27 -54 23 2 27 8 27 33 0 23 -5 31 -21 33 -11 2 -26 -4 -33 -12z" fill="#bc8787"/>
<path d="M3857 4074 c-4 -4 -7 -20 -7 -35 0 -19 6 -30 20 -34 28 -9 52 13 48 44 -2 19 -9 27 -28 29 -14 2 -29 0 -33 -4z" fill="#bc8787"/>
<path d="M4060 4000 c-14 -26 3 -60 31 -60 27 0 47 44 29 65 -18 21 -47 19 -60 -5z" fill="#bc8787"/>
<path d="M3900 3920 c-11 -11 -20 -26 -20 -33 0 -18 21 -43 43 -50 20 -7 57 24 57 48 0 17 -35 55 -50 55 -5 0 -19 -9 -30 -20z" fill="#bc8787"/>
<path d="M3190 4251 c-92 -49 -98 -180 -11 -238 40 -27 107 -31 152 -8 94 49 91 210 -6 251 -47 19 -93 18 -135 -5z" fill="#bc8787"/>
<path d="M2986 4014 c-43 -43 5 -120 60 -96 13 7 29 23 36 36 24 55 -53 103 -96 60z" fill="#bc8787"/>
<path d="M3466 3508 c-31 -43 -14 -91 36 -103 54 -13 92 70 50 108 -26 24 -68 21 -86 -5z" fill="#bc8787"/>
<path d="M3245 3503 c-66 -16 -105 -118 -75 -197 14 -38 67 -68 108 -62 70 10 142 94 128 149 -9 37 -55 87 -93 103 -34 15 -35 15 -68 7z" fill="#bc8787"/>
<path d="M3434 3218 c-48 -23 -59 -104 -19 -143 46 -47 119 -24 131 40 8 45 -10 89 -42 104 -30 13 -42 13 -70 -1z" fill="#bc8787"/>
<path d="M4095 3470 c-8 -13 4 -32 16 -25 12 8 12 35 0 35 -6 0 -13 -4 -16 -10z" fill="#bc8787"/>
<path d="M4194 3465 c-8 -21 2 -45 19 -45 21 0 38 25 31 44 -8 20 -43 21 -50 1z" fill="#bc8787"/>
<path d="M4004 3429 c-10 -17 13 -36 27 -22 12 12 4 33 -11 33 -5 0 -12 -5 -16 -11z" fill="#bc8787"/>
<path d="M3943 3354 c-7 -19 2 -28 22 -21 19 8 19 23 0 31 -9 3 -18 -1 -22 -10z" fill="#bc8787"/>
<path d="M4177 3354 c-14 -14 -7 -35 11 -32 9 2 17 10 17 17 0 16 -18 25 -28 15z" fill="#bc8787"/>
<path d="M4124 3269 c-10 -17 13 -36 27 -22 12 12 4 33 -11 33 -5 0 -12 -5 -16 -11z" fill="#bc8787"/>
<path d="M4065 3201 c-3 -5 -1 -12 5 -16 12 -7 30 2 30 16 0 12 -27 12 -35 0z" fill="#bc8787"/>
<path d="M3971 3160 c-19 -11 -9 -45 14 -45 13 0 21 8 23 21 3 23 -17 37 -37 24z" fill="#bc8787"/>
<path d="M5734 3450 c-59 -24 -103 -121 -84 -189 11 -43 64 -97 106 -107 41 -10 110 2 142 24 87 62 76 210 -19 266 -29 17 -110 21 -145 6z" fill="#bc8787"/>
</g>
</svg>